<svg xmlns="http://www.w3.org/2000/svg" viewBox="0 0 100 100">
  <defs>
    <style>
      .cls-1 {
        fill: #eea9ff;
      }

      .cls-2 {
        fill: #333;
      }

      .cls-3 {
        fill: #fff;
      }

      .cls-4 {
        fill: none;
      }

      .cls-5 {
        fill: #ffefab;
      }
    </style>
  </defs>
  <g id="圖層_1" data-name="圖層 1">
    <g>
      <path class="cls-1" d="M80.172,80.127c.091-.024.068-.116-.026-.076l-.091.074A.309.309,0,0,0,80.172,80.127Z"/>
      <polygon class="cls-1" points="80.047 80.129 80.048 80.13 80.055 80.125 80.053 80.124 80.047 80.129"/>
      <path class="cls-1" d="M80.018,80.154a.209.209,0,0,1,.029-.023h0A.278.278,0,0,0,80.018,80.154Z"/>
      <path class="cls-1" d="M80.011,80.117c-.23-.09-.134-.032,0,0Z"/>
      <path class="cls-2" d="M80.055,80.125l.091-.074a.386.386,0,0,0-.093.073Z"/>
      <path class="cls-3" d="M51.467,36.048a7.478,7.478,0,1,0,6.2,7.366A7.534,7.534,0,0,0,51.467,36.048Z"/>
      <path class="cls-2" d="M54.359,31.958a12.167,12.167,0,0,0-13.431,3.595,12.161,12.161,0,1,0,13.431-3.595ZM52.86,50.4a7.507,7.507,0,0,1-8.513-2.37,7.478,7.478,0,0,1,7.12-11.981A7.478,7.478,0,0,1,52.86,50.4Z"/>
      <path class="cls-2" d="M84.962,73.545V51.235a38.5,38.5,0,0,0-1.568-11.6,35.032,35.032,0,0,0-42.63-23.4A35.473,35.473,0,0,0,16.473,40.242c-2,6.845-1.384,14.316-1.384,21.37v12.32c0,2.059-.155,4.184.026,6.238a4.957,4.957,0,0,0,7.018,3.985,2.521,2.521,0,0,0,.521-.254l4.032-2.576c1.194-.763,1.853-.954,3.127-.3,1.322.679,2.723,1.243,4.075,1.862a39.44,39.44,0,0,0,4.085,1.839c2.033.661,3.964.033,5.776-.892q1.792-.917,3.586-1.83c.9-.459,2.265-1.549,3.3-1.512a5.632,5.632,0,0,1,2.346,1.121c.956.572,1.886,1.187,2.846,1.752,1.861,1.094,3.725,2.111,5.969,1.36a31.03,31.03,0,0,0,4.434-2.269c.642-.341,3.016-1.827,3.652-1.862,1.173-.063,2.255.933,3.252,1.418,1.488.723,2.965,1.475,4.466,2.17a5,5,0,0,0,7.361-4.4C85.048,77.713,84.962,75.618,84.962,73.545Zm-4.951,6.572c-.134-.032-.23-.09,0,0Zm.007.037a.278.278,0,0,1,.028-.024h0A.209.209,0,0,0,80.018,80.154Zm.223-.441a1.413,1.413,0,0,0-.018.2.181.181,0,0,1-.077.14c.094-.04.117.052.026.076a.309.309,0,0,1-.117,0l-.007,0h0l.006-.005-.026,0c-1.287-.523-2.527-1.23-3.776-1.837-1.327-.645-2.645-1.32-3.985-1.937-2.1-.967-3.846-.4-5.743.606l-5.062,2.685c-.807.428-1.209.835-2.035.357-1.564-.906-3.116-1.833-4.674-2.749-1.626-.956-3.146-1.7-5.114-1.417-1.532.22-3.081,1.272-4.441,1.966-1.531.781-3.078,1.539-4.6,2.346a1.022,1.022,0,0,1-.188.074c-.3.041-.59.025-.894.038a.165.165,0,0,0-.063.01h0c-.238-.092-.468-.214-.7-.32l-5.1-2.341a20.643,20.643,0,0,0-4.065-1.735c-2.136-.441-3.82.441-5.542,1.541l-3.771,2.41c-.283.16-.273.149-.5.029.136.073.084.021.027-.032,0,0,.009-.007.008-.029-.011-.163,0-.33,0-.493V53.951c0-2.3-.075-4.634.133-6.931A30.69,30.69,0,0,1,37.852,22.274c4.646-2.112,8.9-2.786,14.705-2.423,6.956.363,12.858,4.377,15.658,5.98,7.41,5.1,12.02,14.978,12.026,24.548q.006,9.96,0,19.921v8.694A3.925,3.925,0,0,1,80.241,79.713Z"/>
      <ellipse class="cls-2" cx="50.215" cy="43.414" rx="3.613" ry="3.62"/>
      <g>
        <path class="cls-4" d="M54.09,32.671a10.734,10.734,0,0,0-3.813-.686,11.385,11.385,0,0,0-8.759,4.05A11.4,11.4,0,1,0,54.09,32.671Z"/>
        <path class="cls-5" d="M81,78.994V63.66q0-6.641,0-13.282A31.551,31.551,0,0,0,68.673,25.223c-.1-.072-.2-.14-.293-.207l-.228-.156c-2.746-1.97-10.071-5.66-15.527-5.768A29.985,29.985,0,0,0,37.538,21.58,31.619,31.619,0,0,0,19.186,46.95c-.168,1.856-.155,3.739-.143,5.562l.006,25.831c0,.535-.1,1.387.322,1.715l.126.093c.578.449,1.595.046,2.212-.348l2.742-1.753c1.537-.982,3.073-1.83,4.979-1.437a12.244,12.244,0,0,1,2.811,1.147c.373.189.737.372,1.092.534l.763.351,1.722.79,1.8.828c.288.133.576.267.867.4.164.073.311.176.479.244a2.262,2.262,0,0,0,.572.148,2.968,2.968,0,0,0,1.751-.413c.609-.33,1.231-.638,1.849-.951l.891-.449,1.512-.764c.325-.166.661-.353,1.005-.543a10.227,10.227,0,0,1,3.2-1.347,6.872,6.872,0,0,1,4.62,1.319l1.544.911q1.565.925,3.135,1.841a2.133,2.133,0,0,0,2.439-.158c.1-.059.213-.122.333-.185l5.062-2.685c1.819-.966,3.3-1.4,5.069-.588.886.408,1.762.842,2.638,1.275.444.22.888.44,1.334.656.412.2.823.412,1.236.624.624.321,1.248.641,1.886.931a2.209,2.209,0,0,0,1.2.372C81.056,80.9,81,79.707,81,78.994ZM61.623,43.4a11.409,11.409,0,1,1-20.1-7.368,11.385,11.385,0,0,1,8.759-4.05,10.734,10.734,0,0,1,3.813.686A11.6,11.6,0,0,1,61.623,43.4Z"/>
        <path class="cls-2" d="M52.447,66.184V62.377a1.842,1.842,0,0,0-.522-1.262,1.78,1.78,0,0,0-3.041,1.262v3.807a1.846,1.846,0,0,0,.522,1.263,1.781,1.781,0,0,0,3.041-1.263Z"/>
      </g>
    </g>
  </g>
</svg>
