<svg xmlns="http://www.w3.org/2000/svg" viewBox="0 0 100 100">
  <defs>
    <style>
      .cls-1 {
        fill: #b9ffb3;
      }

      .cls-2 {
        fill: #333;
      }
    </style>
  </defs>
  <g id="圖層_1" data-name="圖層 1">
    <g>
      <path class="cls-1" d="M50,18.9A31.269,31.269,0,0,0,18.889,50.26C18.889,62.017,33.9,81.1,50,81.1c12.6,0,31.112-17.636,31.112-30.838A31.271,31.271,0,0,0,50,18.9ZM29.3,61.057c-5.373-5.414-6.575-12.682-2.739-16.548a7.937,7.937,0,0,1,5.786-2.246c3.565,0,7.55,1.871,10.661,5.005,5.372,5.413,6.575,12.683,2.737,16.548a7.929,7.929,0,0,1-5.786,2.246C36.4,66.062,32.413,64.191,29.3,61.057Zm24.8,12.569H45.9a1.951,1.951,0,0,1,0-3.9H54.1a1.951,1.951,0,0,1,0,3.9Zm5.932-7.564a7.929,7.929,0,0,1-5.786-2.246c-3.837-3.866-2.634-11.135,2.738-16.548,3.11-3.134,7.1-5.005,10.66-5.005a7.933,7.933,0,0,1,5.786,2.246c3.836,3.866,2.634,11.135-2.738,16.548C67.587,64.191,63.6,66.062,60.037,66.062Z"/>
      <path class="cls-2" d="M54.1,69.724H45.9a1.951,1.951,0,0,0,0,3.9h8.21a1.951,1.951,0,0,0,0-3.9Z"/>
      <path class="cls-2" d="M50,15A35.171,35.171,0,0,0,15,50.26C15,60.617,27.6,85,50,85c17.5,0,35-20.836,35-34.74A35.171,35.171,0,0,0,50,15Zm0,66.1c-16.1,0-31.11-19.081-31.11-30.838a31.112,31.112,0,1,1,62.222,0C81.111,63.462,62.6,81.1,50,81.1Z"/>
      <g>
        <path class="cls-2" d="M32.35,42.263a7.937,7.937,0,0,0-5.786,2.246C22.728,48.375,23.93,55.643,29.3,61.057c3.11,3.134,7.1,5,10.659,5a7.929,7.929,0,0,0,5.786-2.246c3.838-3.865,2.635-11.135-2.737-16.548C39.9,44.134,35.915,42.263,32.35,42.263Z"/>
        <path class="cls-2" d="M73.435,44.509a7.933,7.933,0,0,0-5.786-2.246c-3.565,0-7.55,1.871-10.66,5.005-5.372,5.413-6.575,12.682-2.738,16.548a7.929,7.929,0,0,0,5.786,2.246c3.565,0,7.55-1.871,10.66-5C76.069,55.644,77.271,48.375,73.435,44.509Z"/>
      </g>
    </g>
  </g>
</svg>
