<svg xmlns="http://www.w3.org/2000/svg" viewBox="0 0 100 100">
  <defs>
    <style>
      .cls-1 {
        fill: #fff;
      }

      .cls-2 {
        fill: #333;
      }
    </style>
  </defs>
  <g id="圖層_1" data-name="圖層 1">
    <g>
      <path class="cls-1" d="M65.358,78.85l.074.036c.063.023.143.051.224.077.185.062.374.115.564.163.16.04.321.071.483.1l.1.016a10.46,10.46,0,0,0,1.127.029c.151-.006.3-.018.451-.031l.168-.022a14.69,14.69,0,0,0,1.737-.432c.179-.06.355-.126.532-.191l.654-.3c.092-.05.175-.141.168-.216s-.033-.132-.153-.15a2.259,2.259,0,0,0-.274.035c-.064.013-.137.033-.207.049l-.4.087a8.451,8.451,0,0,1-2.425.225,6.994,6.994,0,0,1-5.321-3.417.994.994,0,0,1-.054-.1H61.5a3.556,3.556,0,0,0,.339.722A7.806,7.806,0,0,0,65.358,78.85Z"/>
      <path class="cls-1" d="M37.283,74.812a7.031,7.031,0,0,1-1.308,1.966,6.5,6.5,0,0,1-5.434,2.062c-.476-.053-.914-.124-1.342-.214l-.383-.083c-.1-.022-.266-.061-.286-.067a.254.254,0,0,0-.163.021c-.052.008-.126.177,0,.3.018.013.3.184.436.245l.367.131c.423.148.822.289,1.243.4.317.08.636.138.958.2l.2.023c.147.012.3.021.447.026a8.309,8.309,0,0,0,1.014-.032c.075-.01.177-.022.227-.032.16-.029.32-.065.479-.107.219-.056.434-.124.647-.2.031-.01.067-.023.107-.034s.074-.042.1-.059a9.194,9.194,0,0,0,1.064-.607,8.851,8.851,0,0,0,1.673-1.608,8.274,8.274,0,0,0,.744-1.148l.082-.162c.044-.09.076-.154.1-.2.04-.095.075-.192.11-.289a2.223,2.223,0,0,0,.151-.523Z"/>
      <path class="cls-1" d="M42.54,80.968v0c.042.035.07.062.09.081l.081.042.014,0,.087.01h.028l.1-.03.041-.02,0,0,0-.005.065-.065.016-.026a.6.6,0,0,1,.051-.157l0-.04c-.018-.645-.013-1.275-.009-1.9q0-.47.005-.938c0-.591-.011-1.186-.023-1.783-.008-.439-.016-.88-.02-1.319h-.59v4.4c0,.467,0,.934,0,1.4v.179A.6.6,0,0,1,42.54,80.968Z"/>
      <path class="cls-1" d="M47.449,81.1l.086,0h.016l.108-.03.041-.02.043-.044.034-.035.011-.019a.592.592,0,0,0,.052-.194c-.017-.648-.012-1.278-.008-1.907q0-.47.005-.938c0-.591-.011-1.186-.023-1.783-.008-.439-.017-.88-.021-1.319H47.2v4.4c0,.467,0,.934,0,1.4a1.574,1.574,0,0,0,.051.357v0c.041.035.069.061.089.081l.085.044.015,0Z"/>
      <path class="cls-1" d="M52,81a.235.235,0,0,0,.088.067.313.313,0,0,0,.414-.135.7.7,0,0,0,.045-.318l-.006-.34q0-.337,0-.675c0-.25,0-.5,0-.749,0-.313.005-.626.005-.938,0-.59-.012-1.185-.023-1.781-.009-.44-.018-.881-.022-1.321h-.588v4.4c0,.467,0,.934,0,1.4a1.277,1.277,0,0,0,.024.208A.455.455,0,0,0,52,81Z"/>
      <path class="cls-1" d="M56.633,74.812v4.4c0,.467,0,.934,0,1.4v.181a.587.587,0,0,1,.051.176v0l.084.075.161.061.051,0,.107-.03a.411.411,0,0,0,.042-.021l.042-.044.034-.034.011-.019a.642.642,0,0,1,.05-.155c0-.082,0-.167,0-.248V77.67l.006-2.858Z"/>
      <path class="cls-1" d="M74.17,35.74a28.736,28.736,0,0,0-9.032-6.691,15.275,15.275,0,0,0-3.014-1.185,19.283,19.283,0,0,1-2.946-.946A7.679,7.679,0,0,1,55.563,24.1a7.289,7.289,0,0,1-.763-1.8A5.122,5.122,0,0,0,53.744,20.2a4.952,4.952,0,0,0-3.754-1.25,4.979,4.979,0,0,0-3.665,1.161,4.888,4.888,0,0,0-1.132,2.175A7.668,7.668,0,0,1,44.474,24c-1.409,2.284-3.935,3.078-6.379,3.845a24.323,24.323,0,0,0-3.09,1.124,28.81,28.81,0,0,0-9.2,6.768,27.294,27.294,0,0,0-6.7,18.312c0,4.269,1.011,11.933,7.769,15.3,3.363,1.674,7.23,1.623,10.972,1.583.607-.008,1.212-.015,1.811-.015H67.221a13.415,13.415,0,0,0,4.826-.859c6.447-2.519,8.783-9.836,8.819-15.846A27.3,27.3,0,0,0,74.17,35.74ZM52.051,56.625a8.248,8.248,0,0,1-7.628-2.59,7.545,7.545,0,0,1-4.5,2.59,8.133,8.133,0,0,1-8.308-3.5,7.257,7.257,0,0,1,.779-8.638A8.117,8.117,0,0,1,41.021,42.3a8.036,8.036,0,0,1,3.393,2.334c.039-.047.068-.1.108-.146A8.117,8.117,0,0,1,53.144,42.3a7.364,7.364,0,0,1-1.093,14.325Z"/>
      <path class="cls-2" d="M81.645,39.707c-3.716-7.556-11.106-13.716-18.825-15.7-1.432-.368-3.02-.849-3.746-1.9a3.5,3.5,0,0,1-.428-1.1c-.065-.245-.133-.5-.225-.741a7.966,7.966,0,0,0-1.59-2.609c-2.6-2.858-7.367-3.182-10.525-2.035a7.7,7.7,0,0,0-4.325,3.688,8.943,8.943,0,0,0-.522,1.376,3.642,3.642,0,0,1-1.251,2.128,10.506,10.506,0,0,1-3.369,1.342,18.255,18.255,0,0,0-2.163.686,33.793,33.793,0,0,0-5.845,3.1A30.533,30.533,0,0,0,15.844,46.718c-.867,3.9-2.3,13.741,3.105,21a16.985,16.985,0,0,0,8.23,5.972,20.068,20.068,0,0,0,5.108,1,3.021,3.021,0,0,1-.287.152l-.165.051-.12.038c-.078.021-.158.034-.215.045l-.1,0c-.145,0-.289.007-.435,0-.053,0-.108-.008-.161-.014l-.312-.064a8.246,8.246,0,0,0-2.416-.294,4.15,4.15,0,0,0-2.847,1.268,4.084,4.084,0,0,0-.934,2.545,3.91,3.91,0,0,0,.652,2.509,5.384,5.384,0,0,0,2.643,1.819,13.618,13.618,0,0,0,4.25.952,10.217,10.217,0,0,0,6.682-2.167,4.293,4.293,0,0,0,3.832,3.418,1.927,1.927,0,0,0,.4.047,2.16,2.16,0,0,0,.558-.062,4.759,4.759,0,0,0,1.835-.625,4.36,4.36,0,0,0,1.92.64,1.92,1.92,0,0,0,.4.047,2.16,2.16,0,0,0,.558-.062,4.759,4.759,0,0,0,1.835-.625,4.36,4.36,0,0,0,1.92.64,1.918,1.918,0,0,0,.4.047,2.185,2.185,0,0,0,.558-.062,4.759,4.759,0,0,0,1.835-.625,4.36,4.36,0,0,0,1.92.64,1.92,1.92,0,0,0,.4.047,2.392,2.392,0,0,0,.558-.062,4.339,4.339,0,0,0,3.882-3.949,10.471,10.471,0,0,0,5.469,2.158,11.766,11.766,0,0,0,4.653-.63c1.733-.579,3.564-1.426,4.007-3.324a4.112,4.112,0,0,0-1.847-4.641,4.3,4.3,0,0,0-1.518-.445,16.19,16.19,0,0,0,5.814-3.017,19.194,19.194,0,0,0,5.879-9.15A30.447,30.447,0,0,0,81.645,39.707ZM57.267,80.55c0,.081,0,.166,0,.248a.642.642,0,0,0-.05.155l-.011.019-.034.034-.042.044a.411.411,0,0,1-.042.021l-.107.03-.051,0-.161-.061-.084-.075v0a.587.587,0,0,0-.051-.176v-.181c0-.468,0-.935,0-1.4v-4.4h.639l-.006,2.858Zm-5.349-1.341v-4.4h.588c0,.44.013.881.022,1.321.011.6.023,1.191.023,1.781,0,.312,0,.625-.005.938,0,.445-.007.891,0,1.336,0,.1,0,.209.005.313a1.083,1.083,0,0,1-.025.381.3.3,0,0,1-.272.218.261.261,0,0,1-.293-.2,2.539,2.539,0,0,1-.04-.287C51.915,80.143,51.917,79.676,51.918,79.209ZM47.43,81.1l-.085-.044c-.02-.02-.048-.046-.089-.081v0a1.259,1.259,0,0,1-.051-.357c0-.468,0-.935,0-1.4v-4.4h.589c0,.439.013.88.021,1.319.012.6.023,1.192.023,1.783q0,.468-.005.938c0,.629-.009,1.259.008,1.907a.575.575,0,0,1-.052.194l-.011.019-.034.035-.043.044-.041.02-.108.03h-.016l-.086,0,0-.007Zm-4.942-1.886v-4.4h.59c0,.439.012.88.02,1.319.012.6.023,1.192.023,1.783q0,.468-.005.938c0,.629-.009,1.259.009,1.9l0,.04a.6.6,0,0,0-.051.157l-.016.026-.065.065,0,.005,0,0-.041.02-.1.03h-.028l-.087-.01-.014,0-.081-.042c-.02-.019-.048-.046-.09-.081v0a.6.6,0,0,0-.051-.178v-.179C42.486,80.143,42.487,79.676,42.488,79.209Zm-4.231-3.585c-.026.046-.058.11-.1.2l-.082.162a8.274,8.274,0,0,1-.744,1.148,8.851,8.851,0,0,1-1.673,1.608,9.194,9.194,0,0,1-1.064.607c-.031.017-.068.036-.1.059s-.076.024-.107.034c-.213.075-.428.143-.647.2-.159.042-.319.078-.479.107-.05.01-.152.022-.227.032a8.309,8.309,0,0,1-1.014.032c-.15,0-.3-.014-.447-.026l-.2-.023c-.322-.059-.641-.117-.958-.2-.421-.107-.82-.248-1.243-.4l-.367-.131a3.744,3.744,0,0,1-.436-.245c-.109-.093-.073-.282,0-.3a.257.257,0,0,1,.16-.02c.02.006.191.044.289.066l.383.083c.428.09.866.161,1.342.214a6.5,6.5,0,0,0,5.434-2.062,7.031,7.031,0,0,0,1.308-1.966h1.235A3.876,3.876,0,0,1,38.257,75.624Zm33.79-5.567a13.415,13.415,0,0,1-4.826.859H39.665c-.6,0-1.2.007-1.811.015-3.742.04-7.609.091-10.972-1.583-6.758-3.363-7.768-11.027-7.769-15.3a27.294,27.294,0,0,1,6.7-18.312,28.81,28.81,0,0,1,9.2-6.768,24.323,24.323,0,0,1,3.09-1.124c2.444-.767,4.97-1.561,6.379-3.845a7.668,7.668,0,0,0,.719-1.722,4.888,4.888,0,0,1,1.132-2.175,4.979,4.979,0,0,1,3.665-1.161,4.952,4.952,0,0,1,3.754,1.25A5.122,5.122,0,0,1,54.8,22.3a7.289,7.289,0,0,0,.763,1.8,7.679,7.679,0,0,0,3.615,2.822,19.283,19.283,0,0,0,2.946.946,15.275,15.275,0,0,1,3.014,1.185A28.736,28.736,0,0,1,74.17,35.74a27.3,27.3,0,0,1,6.7,18.471C80.83,60.221,78.494,67.538,72.047,70.057ZM62.8,74.812q.026.052.054.1a7,7,0,0,0,5.322,3.417,8.454,8.454,0,0,0,2.425-.225l.4-.087c.07-.016.128-.033.2-.049a2.106,2.106,0,0,1,.292-.035.15.15,0,0,1,.15.138c.013.1-.085.181-.155.219s-.672.307-.672.307c-.176.066-.353.132-.531.191a14.66,14.66,0,0,1-1.738.432l-.167.023c-.15.012-.3.024-.451.031a10.473,10.473,0,0,1-1.127-.03l-.1-.016c-.162-.031-.323-.062-.484-.1q-.285-.07-.563-.163c-.081-.026-.162-.054-.225-.076l-.074-.037a7.811,7.811,0,0,1-3.514-3.317,3.586,3.586,0,0,1-.339-.723Z"/>
      <path class="cls-1" d="M54.721,48.666c-.079-.3-.159-.595-.262-.891-.013-.035-.019-.057-.026-.077s-.025-.039-.047-.075c-.079-.132-.147-.268-.228-.4s-.171-.253-.26-.378c-.021-.03-.03-.045-.043-.064s-.037-.032-.069-.063c-.185-.178-.37-.354-.557-.53-.063-.049-.095-.074-.108-.086-.052-.036-.1-.072-.156-.1-.088-.056-.177-.11-.268-.162-.16-.09-.324-.17-.491-.249l-.043-.023-.045-.014c-.311-.1-.619-.174-.937-.249l-.089-.023c-.023,0-.049,0-.091,0-.141-.005-.28-.017-.421-.019s-.282,0-.423.008c.009,0-.16.017-.26.025s-.256.045-.248.043c-.106.022-.211.047-.316.075-.156.042-.307.094-.461.142l-.024.008a6.481,6.481,0,0,0-.822.44c.006-.005-.121.086-.2.139s-.19.158-.183.153a6.408,6.408,0,0,0-.508.508,1.309,1.309,0,0,0-.089.11c-.073.105-.147.208-.215.316-.082.13-.15.266-.228.4-.023.037-.035.056-.049.077s-.012.04-.024.075a7.225,7.225,0,0,0-.229.738c-.015.064-.026.127-.039.191a2.342,2.342,0,0,1-.032.292,5.435,5.435,0,0,0,.006.722c0,.049.008.1.013.146l.019.105c.024.1.044.2.071.3a5.182,5.182,0,0,0,.221.65c.03.037.223.412.271.488.081.129.171.253.259.378l.016.019c.207.227.43.427.654.637l.054.052.015.011c.107.073.216.144.327.211a6.758,6.758,0,0,0,.676.351l.038.014c.154.049.3.1.461.142s.317.073.477.107l.07.017h.027a6.76,6.76,0,0,0,.842.022c.1,0,.2-.013.3-.021.054-.009.17-.025.216-.034a8.015,8.015,0,0,0,.781-.208c.04-.013.079-.028.119-.042l.117-.053c.093-.049.189-.092.282-.141a5.683,5.683,0,0,0,.59-.366c.038-.043.359-.311.422-.372.092-.09.178-.184.265-.277a.451.451,0,0,1,.039-.039l.022-.031c.179-.253.33-.511.488-.776l.031-.052c.053-.128.1-.259.145-.391a5.862,5.862,0,0,0,.183-.736l0-.035c.007-.161.019-.32.021-.481,0-.193-.013-.385-.034-.578A.733.733,0,0,0,54.721,48.666ZM50.5,51.877a2.563,2.563,0,1,1,2.694-2.56A2.629,2.629,0,0,1,50.5,51.877Z"/>
      <path class="cls-1" d="M54.744,49.861c-.008.083-.009.189,0,0Z"/>
      <path class="cls-1" d="M48.824,45.567c-.193.062-.079.029,0,0Z"/>
      <path class="cls-1" d="M47.116,51.816c.054.066.147.163,0,0Z"/>
      <path class="cls-1" d="M48.808,53.058c-.133-.06-.074-.031,0,0Z"/>
      <path class="cls-2" d="M50.5,46.757a2.563,2.563,0,1,0,2.694,2.56A2.629,2.629,0,0,0,50.5,46.757Z"/>
      <path class="cls-1" d="M36.7,45.567c-.193.062-.079.029,0,0Z"/>
      <path class="cls-1" d="M36.685,53.058c-.133-.06-.074-.031,0,0Z"/>
      <path class="cls-1" d="M34.993,51.816c.054.066.147.163,0,0Z"/>
      <path class="cls-1" d="M42.621,49.861c-.008.083-.009.189,0,0Z"/>
      <path class="cls-1" d="M42.6,48.666c-.078-.3-.158-.595-.261-.891-.013-.035-.019-.057-.026-.077s-.026-.039-.047-.075c-.079-.132-.147-.268-.229-.4s-.171-.253-.259-.378c-.021-.03-.03-.045-.043-.064s-.037-.032-.069-.063c-.185-.178-.371-.354-.557-.53-.064-.049-.095-.074-.108-.086-.052-.036-.1-.072-.156-.1-.088-.056-.177-.11-.268-.162-.16-.09-.324-.17-.491-.249l-.043-.023-.045-.014c-.311-.1-.62-.174-.937-.249-.043-.01-.069-.017-.089-.023s-.049,0-.091,0c-.141-.005-.28-.017-.421-.019s-.282,0-.423.008c.009,0-.16.017-.26.025s-.256.045-.248.043c-.106.022-.211.047-.316.075-.156.042-.307.094-.461.142l-.024.008A6.562,6.562,0,0,0,35.9,46c.007-.005-.12.086-.2.139s-.19.158-.183.153a6.408,6.408,0,0,0-.508.508c-.034.04-.072.084-.09.11-.072.105-.146.208-.214.316-.082.13-.15.266-.229.4-.022.037-.035.056-.048.077s-.012.04-.024.075a7.225,7.225,0,0,0-.229.738c-.015.064-.026.127-.039.191a2.535,2.535,0,0,1-.032.292,5.435,5.435,0,0,0,.006.722c0,.049.008.1.013.146l.019.105c.024.1.044.2.071.3a5.182,5.182,0,0,0,.221.65c.03.037.223.412.271.488.081.129.171.253.259.378l.016.019c.207.227.43.427.654.637l.054.053.015.01c.107.073.216.144.327.211a6.651,6.651,0,0,0,.676.351c.014,0,.029.012.038.014.154.049.3.1.461.142s.317.073.476.107l.071.017h.027a6.755,6.755,0,0,0,.842.022c.1,0,.2-.013.3-.021.054-.009.17-.025.216-.034.266-.053.522-.129.781-.208.04-.013.079-.028.118-.042l.118-.053c.093-.049.189-.092.282-.141a5.683,5.683,0,0,0,.59-.366c.038-.043.359-.311.422-.372.092-.09.178-.184.265-.277a.451.451,0,0,1,.039-.039l.022-.031c.179-.253.33-.511.488-.776l.031-.052c.053-.128.1-.259.145-.391a5.862,5.862,0,0,0,.183-.736l0-.035c.007-.161.018-.32.021-.481,0-.193-.013-.385-.034-.578A.5.5,0,0,0,42.6,48.666Zm-4.225,3.211a2.563,2.563,0,1,1,2.694-2.56A2.629,2.629,0,0,1,38.372,51.877Z"/>
      <path class="cls-2" d="M53.144,42.3a8.117,8.117,0,0,0-8.622,2.188c-.04.046-.069.1-.108.146A8.036,8.036,0,0,0,41.021,42.3,8.117,8.117,0,0,0,32.4,44.488a7.257,7.257,0,0,0-.779,8.638,8.133,8.133,0,0,0,8.308,3.5,7.545,7.545,0,0,0,4.5-2.59,8.248,8.248,0,0,0,7.628,2.59A7.364,7.364,0,0,0,53.144,42.3ZM36.7,45.567c-.079.029-.193.062,0,0Zm-1.708,6.249c.147.163.054.066,0,0Zm1.692,1.242c-.074-.031-.133-.06,0,0Zm5.936-3.2c-.009.189-.008.083,0,0Zm0-.063,0,.035a5.862,5.862,0,0,1-.183.736c-.043.132-.092.263-.145.391l-.031.052c-.158.265-.309.523-.488.776l-.022.031a.451.451,0,0,0-.039.039c-.087.093-.173.187-.265.277-.063.061-.384.329-.422.372a5.683,5.683,0,0,1-.59.366c-.093.049-.189.092-.282.141l-.118.053c-.039.014-.078.029-.118.042-.259.079-.515.155-.781.208-.046.009-.162.025-.216.034-.1.008-.2.017-.3.021a6.755,6.755,0,0,1-.842-.022h-.027l-.071-.017c-.159-.034-.318-.065-.476-.107s-.307-.093-.461-.142c-.009,0-.024-.009-.038-.014a6.651,6.651,0,0,1-.676-.351c-.111-.067-.22-.138-.327-.211l-.015-.01-.054-.053c-.224-.21-.447-.41-.654-.637l-.016-.019c-.088-.125-.178-.249-.259-.378-.048-.076-.241-.451-.271-.488a5.182,5.182,0,0,1-.221-.65c-.027-.1-.047-.2-.071-.3l-.019-.105c-.005-.048-.01-.1-.013-.146A5.435,5.435,0,0,1,34.109,49a2.535,2.535,0,0,0,.032-.292c.013-.064.024-.127.039-.191a7.225,7.225,0,0,1,.229-.738c.012-.035.017-.053.024-.075s.026-.04.048-.077c.079-.132.147-.268.229-.4.068-.108.142-.211.214-.316.018-.026.056-.07.09-.11a6.408,6.408,0,0,1,.508-.508c-.007.005.112-.092.183-.153s.2-.144.2-.139a6.562,6.562,0,0,1,.823-.44l.024-.008c.154-.048.3-.1.461-.142.1-.028.21-.053.316-.075-.008,0,.151-.025.248-.043s.269-.025.26-.025c.141-.007.282-.009.423-.008s.28.014.421.019c.042,0,.068,0,.091,0s.046.013.089.023c.317.075.626.151.937.249l.045.014.043.023c.167.079.331.159.491.249.091.052.18.106.268.162.053.033.1.069.156.1.013.012.044.037.108.086.186.176.372.352.557.53.032.031.051.047.069.063s.022.034.043.064c.088.125.178.248.259.378s.15.266.229.4c.021.036.036.059.047.075s.013.042.026.077c.1.3.183.588.261.891a.5.5,0,0,1,.014.073c.021.193.031.385.034.578C42.642,49.478,42.631,49.637,42.624,49.8Zm6.2-4.231c-.079.029-.193.062,0,0Zm-1.708,6.249c.147.163.054.066,0,0Zm1.692,1.242c-.074-.031-.133-.06,0,0Zm5.936-3.2c-.009.189-.008.083,0,0Zm0-.063,0,.035a5.862,5.862,0,0,1-.183.736c-.043.132-.092.263-.145.391l-.031.052c-.158.265-.309.523-.488.776l-.022.031a.451.451,0,0,0-.039.039c-.087.093-.173.187-.265.277-.063.061-.384.329-.422.372a5.683,5.683,0,0,1-.59.366c-.093.049-.189.092-.282.141l-.117.053c-.04.014-.079.029-.119.042a8.015,8.015,0,0,1-.781.208c-.046.009-.162.025-.216.034-.1.008-.2.017-.3.021a6.76,6.76,0,0,1-.842-.022H49.88l-.07-.017c-.16-.034-.319-.065-.477-.107s-.307-.093-.461-.142l-.038-.014a6.758,6.758,0,0,1-.676-.351c-.111-.067-.22-.138-.327-.211l-.015-.011-.054-.052c-.224-.21-.447-.41-.654-.637l-.016-.019c-.088-.125-.178-.249-.259-.378-.048-.076-.241-.451-.271-.488a5.182,5.182,0,0,1-.221-.65c-.027-.1-.047-.2-.071-.3l-.019-.105c0-.049-.01-.1-.013-.146A5.435,5.435,0,0,1,46.232,49a2.342,2.342,0,0,0,.032-.292c.013-.064.024-.127.039-.191a7.225,7.225,0,0,1,.229-.738c.012-.035.017-.053.024-.075s.026-.04.049-.077c.078-.132.146-.268.228-.4.068-.108.142-.211.215-.316a1.309,1.309,0,0,1,.089-.11,6.408,6.408,0,0,1,.508-.508c-.007.005.112-.092.183-.153s.2-.144.2-.139a6.481,6.481,0,0,1,.822-.44l.024-.008c.154-.048.3-.1.461-.142.105-.028.21-.053.316-.075-.008,0,.151-.025.248-.043s.269-.025.26-.025c.141-.007.282-.009.423-.008s.28.014.421.019c.042,0,.068,0,.091,0l.089.023c.318.075.626.151.937.249l.045.014.043.023c.167.079.331.159.491.249.091.052.18.106.268.162.053.033.1.069.156.1.013.012.045.037.108.086.187.176.372.352.557.53.032.031.051.047.069.063s.022.034.043.064c.089.125.178.248.26.378s.149.266.228.4c.022.036.036.059.047.075s.013.042.026.077c.1.3.183.588.262.891a.733.733,0,0,1,.013.073c.021.193.031.385.034.578C54.766,49.478,54.754,49.637,54.747,49.8Z"/>
      <path class="cls-2" d="M38.372,46.757a2.563,2.563,0,1,0,2.694,2.56A2.629,2.629,0,0,0,38.372,46.757Z"/>
    </g>
  </g>
</svg>
